<svg width="42" height="30" viewBox="0 0 42 30" fill="none" xmlns="http://www.w3.org/2000/svg">
<path d="M0 15C0 6.71573 6.71573 0 15 0H26.6182C34.9025 0 41.6182 6.71573 41.6182 15C41.6182 23.2843 34.9025 30 26.6182 30H15C6.71573 30 0 23.2843 0 15Z" fill="#D9CB86"/>
<path d="M18.9181 20.2578V23H9.83608V20.2578H18.9181ZM10.9845 5.9375V23H7.46889V5.9375H10.9845ZM17.7345 12.8867V15.5586H9.83608V12.8867H17.7345ZM18.9064 5.9375V8.69141H9.83608V5.9375H18.9064Z" fill="#F2F2F2"/>
<path d="M34.8556 5.9375V23H31.34L24.4845 11.5625V23H20.9689V5.9375H24.4845L31.3517 17.3867V5.9375H34.8556Z" fill="#F2F2F2"/>
</svg>
