<svg width="43" height="30" viewBox="0 0 43 30" fill="none" xmlns="http://www.w3.org/2000/svg">
<path d="M0.572723 15C0.572723 6.71573 7.28845 0 15.5727 0H27.1909C35.4752 0 42.1909 6.71573 42.1909 15C42.1909 23.2843 35.4752 30 27.1909 30H15.5727C7.28846 30 0.572723 23.2843 0.572723 15Z" fill="#D9CB86"/>
<path d="M11.5572 5.9375V23H8.04161V5.9375H11.5572ZM18.3541 13.2266V15.9688H10.5963V13.2266H18.3541ZM19.1744 5.9375V8.69141H10.5963V5.9375H19.1744Z" fill="#F2F2F2"/>
<path d="M21.2135 5.9375H27.5768C28.8815 5.9375 30.0026 6.13281 30.9401 6.52344C31.8854 6.91406 32.6119 7.49219 33.1197 8.25781C33.6276 9.02344 33.8815 9.96484 33.8815 11.082C33.8815 11.9961 33.7252 12.7812 33.4127 13.4375C33.108 14.0859 32.6744 14.6289 32.1119 15.0664C31.5572 15.4961 30.9049 15.8398 30.1549 16.0977L29.0416 16.6836H23.5104L23.4869 13.9414H27.6002C28.2174 13.9414 28.7291 13.832 29.1354 13.6133C29.5416 13.3945 29.8463 13.0898 30.0494 12.6992C30.2604 12.3086 30.3658 11.8555 30.3658 11.3398C30.3658 10.793 30.2643 10.3203 30.0611 9.92188C29.858 9.52344 29.5494 9.21875 29.1354 9.00781C28.7213 8.79688 28.2018 8.69141 27.5768 8.69141H24.7291V23H21.2135V5.9375ZM30.7526 23L26.8619 15.3945L30.5768 15.3711L34.5143 22.8359V23H30.7526Z" fill="#F2F2F2"/>
</svg>
