<svg width="184" height="31" viewBox="0 0 184 31" fill="none" xmlns="http://www.w3.org/2000/svg">
<rect width="184" height="31" rx="5" fill="#DA781D"/>
<path d="M58.82 22.32C58.82 22.32 58.7733 22.16 58.68 21.84C58.5867 21.52 58.46 21.0867 58.3 20.54C58.1533 19.98 57.9667 19.34 57.74 18.62C57.5267 17.8867 57.3 17.1133 57.06 16.3C56.82 15.4867 56.5733 14.6667 56.32 13.84C56.0667 13.0133 55.82 12.22 55.58 11.46C55.46 11.06 55.2667 10.7667 55 10.58C54.7333 10.3933 54.3667 10.2933 53.9 10.28L53.84 10.18L53.98 9.16C53.98 9.16 54.0667 9.16667 54.24 9.18C54.4133 9.18 54.6267 9.18667 54.88 9.2C55.1467 9.2 55.4133 9.20667 55.68 9.22C55.96 9.22 56.1933 9.22 56.38 9.22C56.7 9.22 57.04 9.21333 57.4 9.2C57.76 9.17333 58.1067 9.14667 58.44 9.12C58.7733 9.09333 59.04 9.07333 59.24 9.06C59.4533 9.03333 59.56 9.02 59.56 9.02L59.64 9.18L59.54 10.14C59.0867 10.1667 58.74 10.2133 58.5 10.28C58.26 10.3333 58.0933 10.4133 58 10.52C57.92 10.6133 57.88 10.7533 57.88 10.94C57.88 11.0467 57.92 11.28 58 11.64C58.08 12 58.18 12.4467 58.3 12.98C58.4333 13.5133 58.58 14.0867 58.74 14.7C58.9 15.3133 59.06 15.92 59.22 16.52C59.38 17.1067 59.52 17.6467 59.64 18.14C59.7733 18.6333 59.88 19.0267 59.96 19.32C60.0533 19.6133 60.1 19.76 60.1 19.76H60.32C60.4667 19.4 60.6333 18.9533 60.82 18.42C61.02 17.8867 61.2333 17.3067 61.46 16.68C61.6867 16.0533 61.9067 15.4267 62.12 14.8C62.3333 14.16 62.5267 13.5667 62.7 13.02C62.8867 12.4733 63.0333 12.0133 63.14 11.64C63.2467 11.2667 63.3 11.0333 63.3 10.94C63.3 10.6867 63.2067 10.5067 63.02 10.4C62.8333 10.28 62.52 10.22 62.08 10.22H61.14L61.08 10.12L61.2 9.1C61.2 9.1 61.3533 9.11333 61.66 9.14C61.9667 9.15333 62.34 9.17333 62.78 9.2C63.2333 9.21333 63.68 9.22 64.12 9.22C64.4533 9.22 64.7933 9.22 65.14 9.22C65.4867 9.20667 65.7733 9.19333 66 9.18C66.24 9.16667 66.36 9.16 66.36 9.16L66.22 10.28C65.8467 10.2933 65.58 10.3667 65.42 10.5C65.2733 10.62 65.1333 10.8733 65 11.26L60.96 21.9L58.82 22.32ZM69.5989 22.24C68.7989 22.24 68.0922 22.0533 67.4789 21.68C66.8789 21.3067 66.4056 20.78 66.0589 20.1C65.7256 19.42 65.5589 18.6333 65.5589 17.74C65.5589 16.7533 65.7589 15.88 66.1589 15.12C66.5722 14.3467 67.1389 13.74 67.8589 13.3C68.5789 12.86 69.3856 12.64 70.2789 12.64C71.0922 12.64 71.7989 12.8267 72.3989 13.2C73.0122 13.5733 73.4856 14.1 73.8189 14.78C74.1522 15.4467 74.3189 16.2333 74.3189 17.14C74.3189 18.1133 74.1122 18.9867 73.6989 19.76C73.2989 20.5333 72.7389 21.14 72.0189 21.58C71.3122 22.02 70.5056 22.24 69.5989 22.24ZM70.0789 21.02C70.7456 21.02 71.2656 20.7533 71.6389 20.22C72.0256 19.6733 72.2189 18.9133 72.2189 17.94C72.2189 17.1267 72.1122 16.4267 71.8989 15.84C71.6989 15.24 71.4122 14.78 71.0389 14.46C70.6789 14.14 70.2456 13.98 69.7389 13.98C69.0856 13.98 68.5656 14.2533 68.1789 14.8C67.8056 15.3467 67.6189 16.1067 67.6189 17.08C67.6189 17.9067 67.7189 18.6133 67.9189 19.2C68.1189 19.7867 68.4056 20.24 68.7789 20.56C69.1522 20.8667 69.5856 21.02 70.0789 21.02ZM75.7161 22.24L75.8361 21.22C76.2361 21.1267 76.5228 20.98 76.6961 20.78C76.8694 20.5667 76.9561 20.2867 76.9561 19.94V15.2C76.9561 14.8133 76.8961 14.5333 76.7761 14.36C76.6561 14.1867 76.4561 14.1 76.1761 14.1C76.0828 14.1 75.9761 14.1133 75.8561 14.14C75.7494 14.1667 75.6961 14.18 75.6961 14.18L75.7761 13.26C76.1761 13.1933 76.5694 13.1267 76.9561 13.06C77.3428 12.9933 77.6961 12.9267 78.0161 12.86C78.3361 12.7933 78.5894 12.74 78.7761 12.7C78.9761 12.66 79.0761 12.64 79.0761 12.64L79.2161 12.92C79.1494 13.0533 79.0828 13.34 79.0161 13.78C78.9628 14.22 78.9161 14.7667 78.8761 15.42C78.8361 16.06 78.8028 16.7733 78.7761 17.56C78.7628 18.3333 78.7561 19.14 78.7561 19.98C78.7561 20.3267 78.8028 20.58 78.8961 20.74C79.0028 20.9 79.1761 20.98 79.4161 20.98C79.5228 20.98 79.6561 20.9733 79.8161 20.96C79.9761 20.9467 80.0561 20.94 80.0561 20.94L80.0961 21.04L79.9161 22.06C79.9161 22.06 79.8494 22.0533 79.7161 22.04C79.5961 22.04 79.4361 22.0333 79.2361 22.02C79.0361 22.02 78.8228 22.0133 78.5961 22C78.3694 22 78.1561 22 77.9561 22C77.6494 22 77.3228 22.02 76.9761 22.06C76.6294 22.1 76.3294 22.14 76.0761 22.18C75.8361 22.22 75.7161 22.24 75.7161 22.24ZM77.7161 10.58C77.3294 10.58 77.0361 10.46 76.8361 10.22C76.6494 9.98 76.5561 9.7 76.5561 9.38C76.5561 8.99333 76.6828 8.66667 76.9361 8.4C77.1894 8.13333 77.5161 8 77.9161 8C78.2894 8 78.5761 8.12 78.7761 8.36C78.9761 8.58667 79.0761 8.86667 79.0761 9.2C79.0761 9.58667 78.9494 9.91333 78.6961 10.18C78.4561 10.4467 78.1294 10.58 77.7161 10.58ZM81.7783 21.1C82.1783 21.06 82.4449 20.94 82.5783 20.74C82.7116 20.5267 82.7783 20.1333 82.7783 19.56V15.36C82.7783 14.9067 82.7183 14.5933 82.5983 14.42C82.4783 14.2333 82.2716 14.14 81.9783 14.14C81.8849 14.14 81.7916 14.1533 81.6983 14.18C81.6183 14.1933 81.5783 14.2 81.5783 14.2L81.4783 14.06L81.5583 13.26C82.0516 13.1667 82.5316 13.0733 82.9983 12.98C83.4783 12.8867 83.8783 12.8067 84.1983 12.74C84.5183 12.66 84.6783 12.62 84.6783 12.62L84.8383 12.76C84.8383 12.76 84.8183 12.8667 84.7783 13.08C84.7516 13.28 84.7249 13.5333 84.6983 13.84C84.6716 14.1333 84.6583 14.4333 84.6583 14.74L84.7383 14.8C85.1649 14.1867 85.6316 13.6933 86.1383 13.32C86.6583 12.9333 87.1316 12.74 87.5583 12.74C87.7716 12.74 87.9316 12.7533 88.0383 12.78C88.1583 12.8067 88.2183 12.82 88.2183 12.82L88.2783 12.94C88.2783 12.94 88.2649 13.04 88.2383 13.24C88.2116 13.4267 88.1716 13.68 88.1183 14C88.0783 14.32 88.0383 14.6733 87.9983 15.06C87.9716 15.4333 87.9449 15.7933 87.9183 16.14L86.9183 16.2C86.9183 15.6133 86.8849 15.2267 86.8183 15.04C86.7516 14.8533 86.5983 14.76 86.3583 14.76C86.1049 14.76 85.8316 14.86 85.5383 15.06C85.2583 15.26 84.9916 15.54 84.7383 15.9C84.7383 15.9 84.7316 16.02 84.7183 16.26C84.7049 16.5 84.6916 16.8067 84.6783 17.18C84.6649 17.54 84.6449 17.9133 84.6183 18.3C84.6049 18.6867 84.5916 19.0267 84.5783 19.32C84.5649 19.6133 84.5583 19.8 84.5583 19.88C84.5583 20.28 84.6183 20.56 84.7383 20.72C84.8716 20.8667 85.1049 20.94 85.4383 20.94C85.6116 20.94 85.8116 20.9333 86.0383 20.92C86.2649 20.8933 86.3783 20.88 86.3783 20.88L86.4183 20.98L86.2183 22.06C86.2183 22.06 86.1383 22.0533 85.9783 22.04C85.8316 22.04 85.6383 22.0333 85.3983 22.02C85.1583 22.02 84.9049 22.0133 84.6383 22C84.3849 22 84.1516 22 83.9383 22C83.5383 22 83.1649 22.0067 82.8183 22.02C82.4716 22.0333 82.1916 22.0467 81.9783 22.06C81.7649 22.0733 81.6583 22.08 81.6583 22.08L81.7783 21.1ZM93.1584 26.74L93.2784 25.76C93.6918 25.7067 93.9584 25.5933 94.0784 25.42C94.1984 25.2467 94.2584 24.9067 94.2584 24.4C94.2718 24.16 94.2784 23.84 94.2784 23.44C94.2918 23.0533 94.2984 22.6533 94.2984 22.24C94.3118 21.8267 94.3184 21.4733 94.3184 21.18V15.36C94.3184 14.9067 94.2451 14.5933 94.0984 14.42C93.9651 14.2467 93.7184 14.16 93.3584 14.16H93.1184L93.0384 14.06L93.1184 13.24C93.6518 13.1467 94.1584 13.06 94.6384 12.98C95.1318 12.8867 95.5318 12.8067 95.8384 12.74C96.1451 12.66 96.2984 12.62 96.2984 12.62L96.4584 12.8C96.4584 12.8 96.4251 12.9267 96.3584 13.18C96.3051 13.42 96.2651 13.68 96.2384 13.96L96.3184 14.08C96.8784 13.64 97.3451 13.3 97.7184 13.06C98.1051 12.82 98.3651 12.7 98.4984 12.7C99.2851 12.7 99.9651 12.88 100.538 13.24C101.125 13.6 101.585 14.1067 101.918 14.76C102.252 15.4 102.418 16.1467 102.418 17C102.418 17.7467 102.285 18.44 102.018 19.08C101.765 19.7067 101.405 20.26 100.938 20.74C100.472 21.2067 99.9251 21.5733 99.2984 21.84C98.6851 22.0933 98.0118 22.22 97.2784 22.22C97.1451 22.22 96.9851 22.2133 96.7984 22.2C96.6251 22.1867 96.4651 22.1733 96.3184 22.16C96.1718 22.16 96.0984 22.16 96.0984 22.16C96.0984 22.4667 96.0984 22.7867 96.0984 23.12C96.0984 23.4533 96.0984 23.7867 96.0984 24.12C96.0984 24.6933 96.1518 25.0867 96.2584 25.3C96.3784 25.5133 96.6118 25.62 96.9584 25.62C97.0784 25.62 97.2051 25.6133 97.3384 25.6C97.4851 25.5867 97.6051 25.58 97.6984 25.58L97.7384 25.66L97.5584 26.62C97.4251 26.62 97.2718 26.62 97.0984 26.62C96.9251 26.62 96.7384 26.6133 96.5384 26.6C96.3518 26.6 96.1584 26.6 95.9584 26.6C95.7718 26.6 95.5918 26.6 95.4184 26.6C95.0451 26.6 94.6851 26.6067 94.3384 26.62C93.9918 26.6467 93.7051 26.6733 93.4784 26.7C93.2651 26.7267 93.1584 26.74 93.1584 26.74ZM97.9184 20.88C98.6918 20.88 99.2984 20.6067 99.7384 20.06C100.192 19.5 100.418 18.7333 100.418 17.76C100.418 17.08 100.318 16.4867 100.118 15.98C99.9184 15.4733 99.6384 15.0733 99.2784 14.78C98.9184 14.4867 98.5184 14.34 98.0784 14.34C97.8384 14.34 97.5518 14.4133 97.2184 14.56C96.8851 14.7067 96.5718 14.9 96.2784 15.14C96.2518 15.6733 96.2251 16.26 96.1984 16.9C96.1851 17.5267 96.1718 18.16 96.1584 18.8C96.1451 19.4267 96.1384 20.0067 96.1384 20.54C96.3518 20.62 96.6184 20.7 96.9384 20.78C97.2718 20.8467 97.5984 20.88 97.9184 20.88ZM103.483 22.22L103.603 21.2C103.95 21.12 104.196 21.0067 104.343 20.86C104.49 20.7 104.576 20.5 104.603 20.26C104.643 20.0067 104.663 19.6867 104.663 19.3V9.74C104.663 9.39333 104.63 9.14667 104.563 9C104.51 8.84 104.39 8.74 104.203 8.7C104.03 8.66 103.77 8.65333 103.423 8.68L103.343 8.62L103.443 7.76C104.016 7.69333 104.59 7.61333 105.163 7.52C105.75 7.41333 106.33 7.29333 106.903 7.16L107.023 7.48C106.97 7.61333 106.91 7.93333 106.843 8.44C106.79 8.93333 106.736 9.58 106.683 10.38C106.643 11.18 106.603 12.0933 106.563 13.12C106.523 14.1333 106.49 15.2267 106.463 16.4C106.45 17.56 106.443 18.7533 106.443 19.98C106.443 20.34 106.49 20.6 106.583 20.76C106.69 20.92 106.863 21 107.103 21L107.783 20.96L107.823 21.06L107.643 22.06C107.363 22.0467 107.03 22.0333 106.643 22.02C106.256 22.0067 105.923 22 105.643 22C105.39 22 105.063 22.02 104.663 22.06C104.276 22.1 103.883 22.1533 103.483 22.22ZM109.762 15.16C109.762 14.8133 109.702 14.5533 109.582 14.38C109.475 14.2067 109.302 14.12 109.062 14.12C108.942 14.12 108.822 14.1333 108.702 14.16C108.595 14.1733 108.542 14.18 108.542 14.18L108.642 13.26C109.002 13.2067 109.368 13.1467 109.742 13.08C110.115 13 110.462 12.9267 110.782 12.86C111.102 12.7933 111.362 12.74 111.562 12.7C111.762 12.66 111.862 12.64 111.862 12.64L112.002 12.92C111.935 13.0933 111.868 13.38 111.802 13.78C111.748 14.18 111.695 14.6533 111.642 15.2C111.588 15.7467 111.548 16.3267 111.522 16.94C111.495 17.54 111.482 18.14 111.482 18.74C111.482 19.94 111.962 20.54 112.922 20.54C113.308 20.54 113.682 20.4333 114.042 20.22C114.402 19.9933 114.735 19.78 115.042 19.58V15.18C115.042 14.78 114.975 14.5067 114.842 14.36C114.708 14.2133 114.455 14.14 114.082 14.14C114.042 14.14 113.962 14.1467 113.842 14.16C113.735 14.16 113.682 14.16 113.682 14.16L113.782 13.24C114.182 13.1867 114.575 13.1267 114.962 13.06C115.362 12.9933 115.722 12.9333 116.042 12.88C116.375 12.8133 116.642 12.76 116.842 12.72C117.055 12.68 117.162 12.66 117.162 12.66L117.302 12.94C117.222 13.14 117.142 13.5733 117.062 14.24C116.995 14.9067 116.935 15.72 116.882 16.68C116.842 17.6267 116.822 18.62 116.822 19.66C116.822 19.94 116.888 20.16 117.022 20.32C117.168 20.4667 117.355 20.54 117.582 20.54C117.782 20.54 117.962 20.5067 118.122 20.44C118.282 20.36 118.415 20.2867 118.522 20.22C118.628 20.14 118.682 20.1 118.682 20.1L118.982 20.46C118.982 20.46 118.922 20.5467 118.802 20.72C118.682 20.8933 118.522 21.0933 118.322 21.32C118.135 21.5467 117.928 21.7533 117.702 21.94C117.488 22.1133 117.282 22.2133 117.082 22.24C115.935 22.24 115.302 21.7133 115.182 20.66L115.062 20.6C114.475 21.08 113.948 21.4733 113.482 21.78C113.015 22.0867 112.695 22.24 112.522 22.24C111.602 22.24 110.895 22.0333 110.402 21.62C109.908 21.2067 109.662 20.6067 109.662 19.82L109.762 15.16ZM122.361 22.24C121.868 22.24 121.428 22.2 121.041 22.12C120.668 22.04 120.374 21.96 120.161 21.88C119.961 21.8 119.861 21.76 119.861 21.76L119.781 21.6C119.808 21.4267 119.834 21.18 119.861 20.86C119.901 20.5267 119.934 20.18 119.961 19.82C120.001 19.46 120.021 19.1667 120.021 18.94L120.901 18.84C120.914 19.6267 121.068 20.1933 121.361 20.54C121.654 20.8867 122.128 21.06 122.781 21.06C123.221 21.06 123.594 20.96 123.901 20.76C124.208 20.56 124.361 20.3133 124.361 20.02C124.361 19.82 124.301 19.6333 124.181 19.46C124.061 19.2867 123.841 19.1 123.521 18.9C123.214 18.6867 122.768 18.44 122.181 18.16C121.408 17.7733 120.841 17.3733 120.481 16.96C120.134 16.5467 119.961 16.0867 119.961 15.58C119.961 15.0067 120.128 14.5 120.461 14.06C120.794 13.62 121.254 13.2733 121.841 13.02C122.441 12.7667 123.108 12.64 123.841 12.64C124.441 12.64 124.941 12.7 125.341 12.82C125.754 12.9267 125.961 12.98 125.961 12.98L126.021 13.12C126.021 13.12 125.994 13.24 125.941 13.48C125.901 13.72 125.848 14.0267 125.781 14.4C125.728 14.7733 125.681 15.18 125.641 15.62L124.721 15.7C124.721 15.7 124.728 15.64 124.741 15.52C124.754 15.4 124.761 15.3 124.761 15.22C124.761 14.74 124.634 14.3933 124.381 14.18C124.141 13.9533 123.761 13.84 123.241 13.84C122.828 13.84 122.481 13.94 122.201 14.14C121.921 14.3267 121.781 14.56 121.781 14.84C121.781 15.1333 121.901 15.4067 122.141 15.66C122.394 15.9 122.801 16.1667 123.361 16.46C124.108 16.82 124.688 17.1533 125.101 17.46C125.514 17.7533 125.801 18.0467 125.961 18.34C126.134 18.6333 126.221 18.96 126.221 19.32C126.221 19.8533 126.048 20.3467 125.701 20.8C125.354 21.24 124.888 21.5933 124.301 21.86C123.714 22.1133 123.068 22.24 122.361 22.24Z" fill="black"/>
</svg>
